<?xml version="1.0" encoding="UTF-8" standalone="no"?>
<!-- Created with Inkscape (http://www.inkscape.org/) -->

<svg
   version="1.1"
   id="svg2"
   width="338.21332"
   height="379.17334"
   viewBox="0 0 338.21332 379.17334"
   sodipodi:docname="Logo_handje.eps"
   xmlns:inkscape="http://www.inkscape.org/namespaces/inkscape"
   xmlns:sodipodi="http://sodipodi.sourceforge.net/DTD/sodipodi-0.dtd"
   xmlns="http://www.w3.org/2000/svg"
   xmlns:svg="http://www.w3.org/2000/svg">
  <defs
     id="defs6" />
  <sodipodi:namedview
     id="namedview4"
     pagecolor="#ffffff"
     bordercolor="#000000"
     borderopacity="0.25"
     inkscape:showpageshadow="2"
     inkscape:pageopacity="0.0"
     inkscape:pagecheckerboard="0"
     inkscape:deskcolor="#d1d1d1" />
  <g
     id="g8"
     inkscape:groupmode="layer"
     inkscape:label="ink_ext_XXXXXX"
     transform="matrix(1.3333333,0,0,-1.3333333,0,379.17333)">
    <g
       id="g10"
       transform="scale(0.1)">
      <path
         d="m 1507.18,480.621 c -41.82,-80.652 -158.08,-98.25 -158.08,-98.25 -92.53,-20.351 -138.77,76.289 -138.77,76.289 l -71,139.172 c -51.67,114.059 -49.73,137.137 -50.75,152.988 -1.03,15.77 1.47,29.918 1.47,29.918 17.21,97.551 146.64,119.16 146.64,119.16 170.09,26.223 203.06,-83.308 203.06,-83.308 15.74,-20.891 71.47,-215.399 71.47,-215.399 27.75,-77.589 -4.04,-120.57 -4.04,-120.57 z m 271.44,814.139 c 30.62,-55.36 64.5,-195.48 64.5,-195.48 31.98,-113.608 55.94,-338.139 55.94,-338.139 17.32,-126.36 8.67,-145.211 8.67,-145.211 -2.95,-47.989 -37.87,-59.45 -37.87,-59.45 -103.53,-49.691 -130.68,-3.32 -130.68,-3.32 -51.08,60.949 -188.55,660.18 -188.55,660.18 l -177.8,-74.94 -38.55,-15.35 33.84,-115.38 c -41.77,26.96 -56.92,35.71 -56.92,35.71 -113.56,66.36 -288.99,-30.04 -288.99,-30.04 C 841.473,915.5 893.293,730.059 893.293,730.059 c 5.605,-21.25 11.027,-38.809 15.937,-50.879 134.4,-329.801 269.51,-407.059 269.51,-407.059 98.59,-64.172 311.12,40.481 311.12,40.481 103.86,62.918 84.35,148.609 84.35,148.609 34.81,-85.02 113.27,-82.59 113.27,-82.59 159.3,-2.141 263.84,79.27 263.84,79.27 93.73,61.211 109.78,209.16 109.78,209.16 14.73,111.597 -59.24,541.649 -59.24,541.649 -43.5,227.08 -129.58,339.14 -129.58,339.14 -89.98,119.6 -216.93,123.82 -216.93,123.82 -218.69,8.52 -479.96,-101.47 -479.96,-101.47 C 800.68,1417.28 624.871,1284.48 624.871,1284.48 436.809,1144.04 459.137,968.762 459.137,968.762 469.965,727.141 711.496,385.32 711.496,385.32 829.883,199.43 997.156,56.9297 997.156,56.9297 1102.73,-22.0313 1284.98,4.17188 1284.98,4.17188 1486.89,24.5703 1795.15,134.012 1795.15,134.012 c 174.6,71.617 194.67,179.707 194.67,179.707 l -146.43,-1.539 c -6.68,-38.121 -85.37,-80.649 -85.37,-80.649 -60.19,-40.691 -405.39,-118.402 -405.39,-118.402 -267.09,-56.297 -349.89,67.98 -349.89,67.98 -60.541,59.039 -219.49,326.09 -219.49,326.09 -82.82,121.949 -154.879,338.949 -154.879,338.949 -45.051,130.293 60.242,235.752 60.242,235.752 69.524,76.74 297.512,170.91 297.512,170.91 412.895,187.95 526.425,186.95 526.425,186.95 130.87,15.48 208.51,-57.2 229.99,-90.03 0,0 20.63,-28.43 25.12,-36.33 l 10.96,-18.64"
         style="fill:#316cbe;fill-opacity:1;fill-rule:nonzero;stroke:none"
         id="path12" />
      <path
         d="m 2197.13,860.969 c 0,0 -131.55,275.941 -46.91,658.371 0,0 50.23,352.23 295.57,388.24 0,0 159.65,11.74 55.49,-221.34 0,0 -83.21,-244.34 -100.7,-310.62 0,0 -49.57,-272.07 -42.41,-342.55 0,0 7.37,-159.468 -40.52,-208.84 0,0 -61.17,-70.742 -120.52,36.739"
         style="fill:#82ce3c;fill-opacity:1;fill-rule:nonzero;stroke:none"
         id="path14" />
      <path
         d="m 1502.81,2841.53 c 0,0 131.05,53.4 186.01,-362.45 l 62.75,-405.8 c 0,0 50.22,-182.53 -135.76,-199.17 0,0 -100.08,-1.23 -112.2,202.7 l -89.41,566.2 c 0,0 -48.64,164.53 88.61,198.52"
         style="fill:#82ce3c;fill-opacity:1;fill-rule:nonzero;stroke:none"
         id="path16" />
      <path
         d="m 1069.94,1818.77 c 0,0 -173.799,359.32 -242.538,596.34 0,0 -104.468,249.67 49.696,321.11 0,0 122.617,55.33 186.342,-170.35 0,0 97.5,-292.99 114.04,-354.25 l 84.55,-231.13 c 0,0 58.74,-148.58 3.01,-187.16 0,0 -100.54,-101.57 -195.1,25.44"
         style="fill:#82ce3c;fill-opacity:1;fill-rule:nonzero;stroke:none"
         id="path18" />
      <path
         d="m 364.934,2414.41 c 0,0 134.476,74.73 213.789,-169.45 0,0 106.754,-236.77 162.703,-354.55 0,0 132.707,-242.3 65.586,-320.11 0,0 -127.992,-170.1 -238.305,49.91 l -193.32,409.15 c 0,0 -74.36,147.36 -85.778,238.23 0,0 -23.648,89.55 75.325,146.82"
         style="fill:#82ce3c;fill-opacity:1;fill-rule:nonzero;stroke:none"
         id="path20" />
      <path
         d="m 31.5039,1804.61 c 0,0 119.8281,105.59 209.0621,-44.9 l 124.293,-217.58 c 0,0 132.45,-205.69 73.84,-275.57 0,0 -96.972,-182.07 -278.355,122.92 0,0 -143.1838,213.13 -155.0315,287.12 0,0 -22.8398,75.18 26.1914,128.01"
         style="fill:#82ce3c;fill-opacity:1;fill-rule:nonzero;stroke:none"
         id="path22" />
    </g>
  </g>
</svg>
